<?xml version="1.0" standalone="no"?>
<!DOCTYPE svg PUBLIC "-//W3C//DTD SVG 20010904//EN"
 "http://www.w3.org/TR/2001/REC-SVG-20010904/DTD/svg10.dtd">
<svg version="1.0" xmlns="http://www.w3.org/2000/svg"
 width="1040.000000pt" height="1040.000000pt" viewBox="0 0 1040.000000 1040.000000"
 preserveAspectRatio="xMidYMid meet">
<metadata>
Created by potrace 1.11, written by Peter Selinger 2001-2013
</metadata>
<g transform="translate(0.000000,1040.000000) scale(0.100000,-0.100000)"
fill="#000000" stroke="none">
<path d="M4736 9478 c-249 -502 -1417 -2840 -2595 -5195 l-2141 -4283 5200 0
5200 0 -2597 5195 c-1429 2857 -2602 5195 -2606 5195 -5 0 -212 -411 -461
-912z m627 -3403 c352 -61 624 -302 721 -637 42 -145 46 -244 46 -1021 0 -781
-5 -864 -50 -1012 -96 -308 -340 -538 -657 -617 -113 -29 -340 -31 -445 -5
-350 86 -589 321 -685 672 l-28 100 0 860 c0 950 -1 933 65 1103 114 295 380
508 700 561 87 14 240 12 333 -4z m-1530 -2147 c4 -366 6 -412 26 -500 63
-283 178 -499 368 -691 221 -222 495 -347 832 -378 154 -15 322 -2 478 36 481
116 853 489 973 975 35 141 43 235 49 595 l6 360 193 3 192 2 0 -347 c0 -191
-4 -372 -10 -402 -5 -31 -17 -105 -25 -165 -77 -521 -421 -1007 -884 -1244
-187 -96 -340 -148 -536 -182 l-100 -17 -3 -81 -3 -82 393 -2 393 -3 3 -193 2
-192 -975 0 -975 0 0 195 0 195 385 0 385 0 0 79 0 80 -47 6 c-92 13 -277 57
-362 87 -636 221 -1065 772 -1140 1460 -6 54 -11 257 -11 453 l0 355 194 0
194 0 5 -402z"/>
</g>
</svg>
